# xmcd
#
# Track frame offsets: 
#        150
#        19067
#        39353
#        64676
#        91533
#        110901
#        128239
#        147529
#        171581
#        191976
#        211983
#        235913
#        262268
#        281093
#        298205
#        316206
#        333308
#
# Disc length: 4677 seconds
#
# Revision: 1
# Processed by: cddbd v1.5.1PL2 Copyright (c) Steve Scherf et al.
# Submitted via: ExactAudioCopy v0.95a5
#
DISCID=12124311
DTITLE=Madonna - Platonum Collection 2001
DYEAR=2001
DGENRE=Dance
TTITLE0=Music
TTITLE1=American Pie
TTITLE2=Paradise
TTITLE3=Frozen
TTITLE4=Beatiful Stranger
TTITLE5=Open Your Heart
TTITLE6=You'll See
TTITLE7=Ray Of Light
TTITLE8=Take A Bow
TTITLE9=Nothing Really Matters
TTITLE10=Vogue
TTITLE11=Like a Prayer
TTITLE12=Papa don't Preach
TTITLE13=La Isla Bonita
TTITLE14=Dress You Up In My Love
TTITLE15=Time Stood Still
TTITLE16=Material Girl
EXTD=
EXTT0=
EXTT1=
EXTT2=
EXTT3=
EXTT4=
EXTT5=
EXTT6=
EXTT7=
EXTT8=
EXTT9=
EXTT10=
EXTT11=
EXTT12=
EXTT13=
EXTT14=
EXTT15=
EXTT16=
PLAYORDER=
